<svg width="150" height="150" viewBox="0 0 150 150" fill="none" xmlns="http://www.w3.org/2000/svg">
<path d="M148.887 44.1172C144.452 22.1364 128.576 7.93373 108.439 7.93373C97.801 7.93373 86.2762 12.0619 75.0119 19.8938C63.591 11.7146 52.2778 7.56934 41.3608 7.56934C21.1114 7.56934 5.30322 21.9273 1.09072 44.1417C-5.08925 76.3511 14.5157 119.106 72.2496 142.014C72.2936 142.031 72.3376 142.047 72.3817 142.061C74.0593 142.718 75.9229 142.718 77.6005 142.061C77.6507 142.044 77.7008 142.026 77.7497 142.006C104.241 131.274 124.788 115.543 137.17 96.5149C148.042 79.8067 152.203 61.2045 148.89 44.1356L148.887 44.1172ZM132.972 93.7832C121.165 111.929 101.446 126.987 75.9473 137.333C75.6379 137.44 75.3164 137.512 74.9911 137.546C74.6622 137.511 74.3381 137.439 74.0263 137.33C19.0094 115.474 0.221315 75.2567 6.01121 45.0796C7.87107 35.2691 12.1851 27.041 18.4861 21.2853C24.7211 15.5872 32.6313 12.5779 41.3608 12.5779C51.6444 12.5779 62.4551 16.7537 73.4932 24.9879C74.3724 25.6434 75.5744 25.6507 76.4621 25.0075C87.3376 17.1144 98.3953 12.9423 108.439 12.9423C117.147 12.9423 125.068 15.9393 131.347 21.613C137.657 27.3137 142.024 35.4367 143.975 45.1003C147.037 60.8841 143.128 78.1719 132.972 93.7832Z" fill="#181818"/>
<path d="M104.031 50.3315H90.9596V48.4937C90.9583 44.154 87.4428 40.6336 83.1019 40.6275H66.8866C62.5469 40.6336 59.0301 44.154 59.0301 48.4937V50.3315H45.9573C41.6922 50.3315 38.3699 53.8715 38.3699 58.2772V95.368C38.3699 99.7749 41.6922 103.234 45.9573 103.234H104.031C108.296 103.234 111.62 99.7749 111.62 95.368V58.2772C111.62 53.8715 108.296 50.3315 104.031 50.3315ZM64.0387 48.4937C64.0362 46.9187 65.3116 45.6397 66.8866 45.636H83.1019C84.6781 45.6397 85.9523 46.9187 85.951 48.4937V50.3315H64.0387V48.4937ZM104.031 98.2256H45.9573C44.4545 98.2256 43.3785 97.0126 43.3785 95.368V84.5586C44.188 84.9217 45.0696 85.1002 45.9573 85.0782H104.031C104.919 85.1002 105.801 84.9229 106.611 84.5586V95.368C106.611 97.0126 105.535 98.2256 104.031 98.2256ZM106.611 77.0824C106.611 78.7271 105.535 80.0697 104.031 80.0697H45.9573C44.4545 80.0697 43.3785 78.7271 43.3785 77.0824V58.2772C43.3785 56.6325 44.4533 55.34 45.9573 55.34H104.031C105.534 55.34 106.611 56.6325 106.611 58.2772V77.0824Z" fill="#181818"/>
<path d="M80.0033 64.731H69.9862C68.602 64.731 67.4819 65.8523 67.4819 67.2353C67.4819 68.6183 68.602 69.7396 69.9862 69.7396H80.0033C81.3862 69.7396 82.5075 68.6183 82.5075 67.2353C82.5075 65.8523 81.3862 64.731 80.0033 64.731Z" fill="#181818"/>
</svg>
