<svg width="150" height="150" viewBox="0 0 150 150" fill="none" xmlns="http://www.w3.org/2000/svg">
<g clip-path="url(#clip0_1_53)">
<path d="M61.6286 132.975L61.188 135.127L61.6126 132.972C60.4224 132.738 59.2666 133.512 59.032 134.703C58.7974 135.894 59.5721 137.049 60.7635 137.283C60.7669 137.284 60.8001 137.29 60.8035 137.291C60.9431 137.318 61.0816 137.331 61.2189 137.331C62.2523 137.331 63.1736 136.599 63.3739 135.546C63.6027 134.354 62.8211 133.202 61.6286 132.975Z" fill="#181818"/>
<path d="M78.4285 133.681L78.6471 135.866L78.4216 133.682C77.2143 133.805 76.3365 134.885 76.4613 136.092C76.5769 137.223 77.5313 138.065 78.6437 138.065C78.7192 138.065 78.7959 138.06 78.8714 138.053L78.9321 138.047C80.1337 137.906 80.9863 136.822 80.8524 135.62C80.7173 134.42 79.6301 133.555 78.4285 133.681Z" fill="#181818"/>
<path d="M70.0171 133.958C70.0171 133.958 69.9862 133.956 69.9851 133.956C68.7743 133.902 67.7626 134.842 67.7077 136.054C67.6539 137.266 68.6061 138.293 69.818 138.348C69.8523 138.35 69.8855 138.35 69.9199 138.35C71.0872 138.35 72.0599 137.431 72.1125 136.252C72.1675 135.04 71.2302 134.013 70.0171 133.958Z" fill="#181818"/>
<path d="M53.5125 130.742L53.4851 130.731C52.343 130.322 51.0978 130.919 50.6881 132.061C50.2773 133.203 50.8838 134.467 52.026 134.878C52.272 134.966 52.5226 135.007 52.7687 135.007C53.6693 135.007 54.5151 134.45 54.8366 133.552C55.2475 132.41 54.6547 131.151 53.5125 130.742Z" fill="#181818"/>
<path d="M86.7209 132.143L87.2622 134.272L86.714 132.145C85.5387 132.447 84.8314 133.645 85.1336 134.821C85.3888 135.812 86.2814 136.471 87.2599 136.471C87.4418 136.471 87.6261 136.448 87.8103 136.4C87.8195 136.397 87.8584 136.387 87.8687 136.385C89.0349 136.067 89.7169 134.869 89.4056 133.7C89.0944 132.533 87.8916 131.838 86.7209 132.143Z" fill="#181818"/>
<path d="M94.6642 129.372L95.5351 131.388L94.6573 129.374C93.545 129.859 93.0357 131.154 93.5198 132.266C93.8803 133.094 94.6882 133.587 95.5362 133.587C95.8281 133.587 96.1268 133.527 96.4117 133.404C96.4209 133.399 96.4563 133.384 96.4655 133.38C97.5676 132.882 98.0539 131.591 97.5618 130.487C97.0697 129.381 95.772 128.886 94.6642 129.372Z" fill="#181818"/>
<path d="M45.1194 29.2088C45.4718 29.2088 45.83 29.1242 46.1608 28.9479C47.2319 28.3769 47.6359 27.0459 47.0648 25.9747C46.4938 24.9047 45.164 24.4985 44.0928 25.0707L44.0665 25.0844C42.9965 25.6555 42.6039 26.9795 43.175 28.0507C43.5687 28.79 44.3331 29.2088 45.1194 29.2088Z" fill="#181818"/>
<path d="M19.7032 53.7506C20.0294 53.9212 20.3784 54.0024 20.7229 54.0024C21.5137 54.0024 22.2781 53.5744 22.6707 52.8248L22.7096 52.7481C23.2452 51.6587 22.7966 50.3415 21.7071 49.807C20.6256 49.2737 19.3187 49.7132 18.7763 50.7878C18.2155 51.8612 18.6298 53.1876 19.7032 53.7506Z" fill="#181818"/>
<path d="M16.61 62.0167C16.8435 62.0957 17.0804 62.1335 17.315 62.1335C18.2305 62.1335 19.0854 61.5555 19.3955 60.64L19.4241 60.553C19.7812 59.3938 19.13 58.1635 17.9696 57.8076C16.8194 57.4528 15.5984 58.0914 15.231 59.2358C14.8453 60.3837 15.4622 61.6288 16.61 62.0167Z" fill="#181818"/>
<path d="M24.0383 46.0637C24.4286 46.3475 24.8806 46.4849 25.3292 46.4849C26.0079 46.4849 26.6785 46.1701 27.1076 45.5796L27.1363 45.5407C27.8412 44.5542 27.6112 43.1855 26.627 42.4806C25.6417 41.7745 24.2684 42.0011 23.5611 42.9853L25.3315 44.2876L23.5543 42.9944C22.8401 43.9763 23.0576 45.3507 24.0383 46.0637Z" fill="#181818"/>
<path d="M37.6602 33.9547C38.1214 33.9547 38.586 33.8094 38.9831 33.5072C39.9628 32.7908 40.1745 31.4164 39.4581 30.4368C38.7405 29.4572 37.3661 29.2455 36.3876 29.9619L36.3327 30.0019C35.3668 30.7355 35.1746 32.1168 35.9081 33.0838C36.3407 33.6537 36.9965 33.9547 37.6602 33.9547Z" fill="#181818"/>
<path d="M14.6485 95.3395C14.9392 96.2837 15.8066 96.8891 16.745 96.8891C16.959 96.8891 17.1776 96.857 17.3928 96.7906C18.5463 96.437 19.1975 95.2148 18.8519 94.0589C18.5212 92.9054 17.3252 92.2279 16.1614 92.5449C14.9907 92.8642 14.3006 94.0727 14.6199 95.2434C14.6267 95.2663 14.6416 95.3166 14.6485 95.3395Z" fill="#181818"/>
<path d="M31.0226 39.7454C31.5937 39.7454 32.1648 39.5245 32.5962 39.0851C33.4534 38.2268 33.4534 36.8352 32.5962 35.978C31.7379 35.1197 30.3463 35.1197 29.488 35.978L29.4514 36.0146C28.6022 36.8809 28.6194 38.2702 29.4857 39.1194C29.9126 39.5382 30.4676 39.7454 31.0226 39.7454Z" fill="#181818"/>
<path d="M17.0769 85.7597C16.9224 84.5661 15.8318 83.7192 14.637 83.8611C13.4331 84.0053 12.5725 85.0982 12.7156 86.3033L12.7282 86.3914C12.8884 87.4832 13.8257 88.2659 14.898 88.2659C15.0033 88.2659 15.1108 88.2579 15.2195 88.2419C16.4155 88.0679 17.2452 86.9556 17.0769 85.7597Z" fill="#181818"/>
<path d="M14.3165 79.4666C14.3394 79.4666 14.3611 79.4678 14.3829 79.4678C15.5662 79.4678 16.5435 78.5259 16.5779 77.3346L16.5801 77.2408C16.5801 76.0265 15.5959 75.0435 14.3829 75.0435C13.1778 75.0435 12.2005 76.0117 12.1856 77.2121C12.1536 78.4229 13.1069 79.4312 14.3165 79.4666Z" fill="#181818"/>
<path d="M14.7983 70.6547C14.9299 70.6776 15.0593 70.689 15.1886 70.689C16.2323 70.689 17.1581 69.9417 17.3492 68.8786C17.3549 68.8465 17.3595 68.8145 17.3641 68.7824C17.5415 67.582 16.7118 66.465 15.5102 66.2888C14.3234 66.1125 13.2122 66.9285 13.0211 68.1118C12.8128 69.3043 13.607 70.4407 14.7983 70.6547Z" fill="#181818"/>
<path d="M118.447 46.7572C118.873 47.3752 119.557 47.7059 120.256 47.7059C120.685 47.7059 121.12 47.58 121.499 47.3179C122.499 46.6313 122.751 45.2626 122.065 44.2624L120.238 45.4846L122.058 44.2521C121.376 43.2473 120.009 42.9852 119.006 43.6661C118.001 44.3471 117.739 45.7135 118.42 46.7183L118.447 46.7572Z" fill="#181818"/>
<path d="M129.668 68.8683C128.462 69.0033 127.595 70.0917 127.731 71.2979L127.742 71.3929C127.899 72.4881 128.84 73.2788 129.915 73.2788C130.018 73.2788 130.124 73.272 130.229 73.2571C131.42 73.0866 132.251 71.9891 132.097 70.7989C131.958 69.5961 130.866 68.7332 129.668 68.8683Z" fill="#181818"/>
<path d="M125.96 62.6678L125.969 62.6965C126.251 63.6543 127.126 64.2746 128.076 64.2746C128.281 64.2746 128.489 64.246 128.697 64.1842C129.862 63.842 130.528 62.6209 130.185 61.4559L130.176 61.4273C129.834 60.2623 128.613 59.5963 127.448 59.9396C126.284 60.2818 125.618 61.5028 125.96 62.6678Z" fill="#181818"/>
<path d="M122.857 54.4522C123.24 55.2315 124.024 55.6858 124.839 55.6858C125.163 55.6858 125.492 55.6138 125.802 55.4604C126.891 54.9248 127.343 53.6156 126.806 52.5261L124.815 53.4543L126.804 52.5216C126.289 51.4229 124.981 50.9503 123.882 51.4653C122.783 51.9803 122.31 53.2883 122.825 54.3869L122.857 54.4522Z" fill="#181818"/>
<path d="M112.913 39.8953C113.343 40.3348 113.912 40.5545 114.482 40.5545C115.037 40.5545 115.592 40.3462 116.02 39.9262C116.881 39.0839 116.9 37.7072 116.07 36.8398C115.248 35.9528 113.86 35.899 112.97 36.7207C112.079 37.5436 112.024 38.934 112.847 39.8255L112.913 39.8953Z" fill="#181818"/>
<path d="M130.382 78.043C129.175 78.0121 128.165 78.9585 128.122 80.1659C128.067 81.3687 128.991 82.3929 130.195 82.4604C130.237 82.4627 130.277 82.4639 130.319 82.4639C131.476 82.4639 132.446 81.5586 132.511 80.3879L132.514 80.2975C132.549 79.0856 131.594 78.0785 130.382 78.043Z" fill="#181818"/>
<path d="M98.8618 29.1059L98.9145 29.1345C99.2418 29.3084 99.5931 29.3908 99.9387 29.3908C100.72 29.3908 101.477 28.9697 101.874 28.2315C102.446 27.1661 102.043 25.834 100.981 25.2572L99.9181 27.1798L100.974 25.2526C99.9101 24.669 98.5746 25.0592 97.9909 26.1235C97.4084 27.1867 97.7975 28.5234 98.8618 29.1059Z" fill="#181818"/>
<path d="M106.294 33.9249L106.328 33.9512C106.725 34.2522 107.191 34.3976 107.654 34.3976C108.318 34.3976 108.974 34.0977 109.407 33.5278C110.14 32.5608 109.95 31.1829 108.984 30.4493L108.969 30.439C108.007 29.6998 106.628 29.8806 105.889 30.843C105.149 31.8055 105.331 33.1856 106.294 33.9249Z" fill="#181818"/>
<path d="M148.644 111.308L138.329 100.975C137.452 100.096 136.285 99.6117 135.044 99.6117C133.803 99.6117 132.636 100.096 131.759 100.975L131.52 101.214L130.843 100.536C130.006 99.6975 129.358 98.7214 128.919 97.6582C128.88 97.5174 128.828 97.3801 128.762 97.2508C128.426 96.3055 128.251 95.2996 128.251 94.2662V91.3434C128.451 91.4486 128.669 91.5253 128.904 91.5654C129.03 91.5871 129.155 91.5974 129.278 91.5974C130.321 91.5974 131.243 90.8536 131.437 89.7961C131.671 88.6082 130.901 87.4535 129.712 87.2155C129.189 87.1113 128.672 87.2017 128.237 87.4375C128.102 84.3155 126.826 81.3996 124.606 79.1749L114.599 69.151C112.354 66.9022 109.368 65.664 106.192 65.664C103.734 65.664 101.392 66.409 99.4171 67.788L98.3551 66.7203V41.589C98.3551 38.5598 97.2553 35.637 95.2595 33.3607C93.8393 31.7425 93.0576 29.6643 93.0576 27.5082V25.6669H93.2087C95.7699 25.6669 97.8539 23.5829 97.8539 21.0206V6.40417C97.8539 3.84184 95.7699 1.75787 93.2087 1.75787H52.1645C49.6033 1.75787 47.5193 3.84184 47.5193 6.40417V21.0206C47.5193 23.5829 49.6033 25.6669 52.1645 25.6669H52.5032V26.6305C52.5032 28.9994 51.582 31.2264 49.91 32.9007L45.48 37.3387C43.1293 39.6939 41.835 42.8238 41.835 46.1541V60.3299C41.835 62.2559 42.2974 64.0744 43.111 65.6857C40.1974 65.8539 37.4817 67.0682 35.4012 69.151L25.3944 79.1749C23.0438 81.5301 21.7495 84.6612 21.7495 87.9902V94.2662C21.7495 96.6351 20.8294 98.8621 19.1574 100.536L18.4879 101.207C18.4845 101.209 18.4822 101.212 18.4799 101.214L18.2419 100.975C17.3641 100.096 16.198 99.6117 14.9563 99.6117C13.7157 99.6117 12.5484 100.096 11.6718 100.975L1.35612 111.308C-0.452042 113.119 -0.452042 116.067 1.35612 117.879L4.88892 121.416C5.74608 122.276 7.13768 122.277 7.99599 121.42C8.85429 120.561 8.85658 119.171 7.99828 118.311L4.46663 114.773C4.36707 114.673 4.36707 114.512 4.46663 114.412L14.7823 104.079C14.8785 103.983 15.0352 103.982 15.1314 104.079L16.9247 105.876H16.9258L41.4127 130.405L44.1559 133.154C44.2554 133.254 44.2554 133.415 44.1559 133.515L33.8413 143.848C33.744 143.945 33.5873 143.945 33.4911 143.848L14.2193 124.543C13.3621 123.683 11.9705 123.682 11.1122 124.539C10.2528 125.398 10.2516 126.788 11.1088 127.647L30.3818 146.952C31.2584 147.831 32.4257 148.315 33.6674 148.315C34.9079 148.315 36.0741 147.831 36.9518 146.952L47.2664 136.62C49.0746 134.809 49.0746 131.861 47.2664 130.05L47.1542 129.937L48.4554 128.634C49.9752 127.111 51.9939 126.195 54.1397 126.057C57.1598 125.861 60.0014 124.572 62.1403 122.429L71.616 112.933C74.3488 112.215 76.4763 109.989 77.0542 107.201C78.0281 107.665 79.1164 107.926 80.2654 107.926C84.3979 107.926 87.7602 104.56 87.7602 100.422V95.2046C88.7054 95.636 89.7549 95.8787 90.8604 95.8787C94.9928 95.8787 98.354 92.5129 98.354 88.3748V72.9504L105.113 79.7425C105.542 80.1739 106.106 80.3891 106.67 80.3891C107.231 80.3891 107.792 80.1762 108.221 79.7494C109.081 78.8933 109.084 77.5029 108.228 76.6423L102.593 70.9797C103.683 70.3789 104.913 70.0585 106.192 70.0585C108.192 70.0585 110.074 70.839 111.488 72.2569L121.495 82.2796C123.017 83.8051 123.856 85.833 123.856 87.9902V94.2662C123.856 97.8081 125.233 101.137 127.732 103.641L128.414 104.324L125.227 107.517L105.951 126.827L104.876 125.75C104.865 125.74 104.854 125.728 104.843 125.718L104.654 125.528C102.379 123.249 99.3565 121.88 96.1452 121.671C94.1917 121.544 92.3538 120.711 90.9634 119.32L83.7433 112.138C82.8827 111.282 81.4911 111.286 80.6351 112.146C79.7802 113.007 79.7836 114.399 80.6442 115.253L87.8597 122.429C89.9986 124.572 92.8402 125.861 95.8614 126.057C98.0061 126.195 100.025 127.111 101.545 128.633L101.651 128.739C101.708 128.804 101.769 128.865 101.833 128.922L102.846 129.936L102.734 130.05C100.925 131.861 100.925 134.808 102.734 136.62L113.048 146.952C113.926 147.831 115.092 148.315 116.334 148.315C117.574 148.315 118.742 147.831 119.619 146.952L148.644 117.878C150.452 116.066 150.452 113.119 148.644 111.308ZM129.723 89.4585L129.682 89.4517L129.282 89.3704L129.723 89.4585ZM59.0298 119.324C57.6462 120.711 55.8083 121.544 53.8559 121.671C50.6435 121.88 47.6212 123.249 45.3461 125.528L44.0495 126.827L42.8822 125.657C42.8673 125.642 42.8524 125.626 42.8375 125.613L21.5858 104.324L22.2679 103.641C24.7673 101.137 26.144 97.8081 26.144 94.2662V87.9902C26.144 85.833 26.9817 83.8051 28.5049 82.2796L38.5117 72.2569C39.9261 70.839 41.8076 70.0585 43.808 70.0585C45.0909 70.0585 46.3245 70.3812 47.4186 70.9866L41.7744 76.64C40.9172 77.4983 40.9184 78.8899 41.7767 79.7471C42.2058 80.1751 42.7677 80.3891 43.3296 80.3891C43.8927 80.3891 44.4557 80.1739 44.8849 79.7448L51.6266 72.9905V100.422C51.6266 104.56 54.9889 107.926 59.1213 107.926C60.2863 107.926 61.3895 107.658 62.3737 107.182C62.8201 109.36 64.2117 111.195 66.0976 112.241L59.0298 119.324ZM93.9606 88.3759C93.9606 90.0902 92.569 91.4853 90.8604 91.4853C89.1506 91.4853 87.7602 90.0902 87.7602 88.3759V63.8661C87.7602 62.653 86.7771 61.6688 85.5629 61.6688C84.3487 61.6688 83.3656 62.653 83.3656 63.8661V100.423C83.3656 102.137 81.9752 103.531 80.2654 103.531C78.7308 103.531 77.457 102.408 77.211 100.937V63.8409C77.211 62.6267 76.228 61.6437 75.0137 61.6437C74.6235 61.6437 74.2561 61.7467 73.938 61.9252C73.2433 62.2948 72.7707 63.025 72.7707 63.8661V100.422C72.7707 100.701 72.7867 100.975 72.8165 101.246V105.674C72.8165 107.388 71.426 108.783 69.7163 108.783C68.0077 108.783 66.6172 107.388 66.6172 105.674V63.8146C66.6172 62.6015 65.633 61.6173 64.4199 61.6173C63.2057 61.6173 62.2215 62.6015 62.2215 63.8146V100.422C62.2215 102.136 60.8311 103.531 59.1225 103.531C57.4127 103.531 56.0223 102.136 56.0223 100.422V59.5494C56.0223 58.3352 55.0381 57.351 53.825 57.351C52.6108 57.351 51.6277 58.3352 51.6277 59.5494V67.1094C51.4435 67.1689 51.265 67.2524 51.099 67.3623C48.2574 66.2945 46.2296 63.5457 46.2296 60.3299V46.1541C46.2296 43.9969 47.0684 41.969 48.5905 40.4435L53.0205 36.0055C55.521 33.5015 56.8977 30.1724 56.8977 26.6305V25.6669H61.3152C62.5294 25.6669 63.5124 24.6827 63.5124 23.4696C63.5124 22.2554 62.5294 21.2723 61.3152 21.2723H52.1645C52.026 21.2723 51.9138 21.159 51.9138 21.0206V6.40417C51.9138 6.2657 52.026 6.1524 52.1645 6.1524H93.2076C93.3472 6.1524 93.4593 6.2657 93.4593 6.40417V21.0206C93.4593 21.1602 93.3472 21.2723 93.2076 21.2723H71.6309C70.4178 21.2723 69.4336 22.2554 69.4336 23.4696C69.4336 24.6827 70.4178 25.6669 71.6309 25.6669H88.6631V27.5082C88.6631 30.7309 89.8315 33.8379 91.9544 36.2595C93.2476 37.7335 93.9606 39.6264 93.9606 41.589V88.3759ZM145.533 114.773L116.509 143.848C116.461 143.897 116.402 143.921 116.334 143.921C116.266 143.921 116.208 143.897 116.159 143.848L105.844 133.515C105.745 133.415 105.745 133.254 105.844 133.154L107.505 131.49L107.506 131.489L124.355 114.611L134.869 104.079C134.965 103.982 135.122 103.982 135.218 104.079L145.533 114.412C145.633 114.512 145.633 114.673 145.533 114.773Z" fill="#181818"/>
<path d="M59.1212 11.3687C57.8314 11.3687 56.782 12.4204 56.782 13.7124C56.782 15.0056 57.8314 16.0562 59.1212 16.0562C60.4121 16.0562 61.4615 15.0056 61.4615 13.7124C61.4615 12.4204 60.4121 11.3687 59.1212 11.3687Z" fill="#181818"/>
<path d="M135.762 111.53C134.471 111.53 133.422 112.581 133.422 113.873C133.422 115.165 134.471 116.217 135.762 116.217C137.052 116.217 138.101 115.165 138.101 113.873C138.101 112.581 137.052 111.53 135.762 111.53Z" fill="#181818"/>
<path d="M36.6165 133.946C36.6165 132.654 35.5671 131.602 34.2773 131.602C32.9864 131.602 31.937 132.654 31.937 133.946C31.937 135.238 32.9864 136.29 34.2773 136.29C35.5671 136.29 36.6165 135.238 36.6165 133.946Z" fill="#181818"/>
</g>
<defs>
<clipPath id="clip0_1_53">
<rect width="150" height="150" fill="white"/>
</clipPath>
</defs>
</svg>
