<svg width="99" height="72" viewBox="0 0 99 72" fill="none" xmlns="http://www.w3.org/2000/svg">
<rect x="36.2405" y="24.7215" width="25.2532" height="8.50633" fill="#FDEC41" stroke="black" stroke-width="2.12658"/>
<mask id="path-2-inside-1_1_8" fill="white">
<path fill-rule="evenodd" clip-rule="evenodd" d="M70 0H28V42H70V0ZM60.4303 9.56961H37.5696V32.4304H60.4303V9.56961Z"/>
</mask>
<path fill-rule="evenodd" clip-rule="evenodd" d="M70 0H28V42H70V0ZM60.4303 9.56961H37.5696V32.4304H60.4303V9.56961Z" fill="#A7EAF3"/>
<path d="M28 0V-1.86076H26.1392V0H28ZM70 0H71.8608V-1.86076H70V0ZM28 42H26.1392V43.8608H28V42ZM70 42V43.8608H71.8608V42H70ZM37.5696 9.56961V7.70885H35.7088V9.56961H37.5696ZM60.4303 9.56961H62.2911V7.70885H60.4303V9.56961ZM37.5696 32.4304H35.7088V34.2911H37.5696V32.4304ZM60.4303 32.4304V34.2911H62.2911V32.4304H60.4303ZM28 1.86076H70V-1.86076H28V1.86076ZM29.8608 42V0H26.1392V42H29.8608ZM70 40.1392H28V43.8608H70V40.1392ZM68.1392 0V42H71.8608V0H68.1392ZM37.5696 11.4304H60.4303V7.70885H37.5696V11.4304ZM39.4303 32.4304V9.56961H35.7088V32.4304H39.4303ZM60.4303 30.5696H37.5696V34.2911H60.4303V30.5696ZM58.5696 9.56961V32.4304H62.2911V9.56961H58.5696Z" fill="black" mask="url(#path-2-inside-1_1_8)"/>
<path d="M48.2026 7.70882V1.86072H68.1393V40.1392L62.2912 34.2911V7.70882H48.2026Z" fill="#003B9F"/>
<path d="M29.8608 1.86072L35.7089 7.70882H48.2026V1.86072H29.8608Z" fill="#FF8761"/>
<circle cx="49.0001" cy="16.4811" r="5.05063" fill="#FFB800"/>
<path d="M4.68 48.6C5.44 48.6 6.1 48.728 6.66 48.984C7.22 49.232 7.652 49.592 7.956 50.064C8.26 50.528 8.412 51.076 8.412 51.708C8.412 52.34 8.26 52.888 7.956 53.352C7.652 53.816 7.22 54.176 6.66 54.432C6.1 54.68 5.44 54.804 4.68 54.804H3.216V57H0.84V48.6H4.68ZM4.536 52.932C5.024 52.932 5.392 52.828 5.64 52.62C5.888 52.404 6.012 52.1 6.012 51.708C6.012 51.316 5.888 51.012 5.64 50.796C5.392 50.58 5.024 50.472 4.536 50.472H3.216V52.932H4.536ZM13.2425 54.768H11.9465V57H9.57047V48.6H13.4105C14.1705 48.6 14.8305 48.728 15.3905 48.984C15.9505 49.232 16.3825 49.592 16.6865 50.064C16.9905 50.528 17.1425 51.076 17.1425 51.708C17.1425 52.316 16.9985 52.848 16.7105 53.304C16.4305 53.752 16.0265 54.104 15.4985 54.36L17.3105 57H14.7665L13.2425 54.768ZM14.7425 51.708C14.7425 51.316 14.6185 51.012 14.3705 50.796C14.1225 50.58 13.7545 50.472 13.2665 50.472H11.9465V52.932H13.2665C13.7545 52.932 14.1225 52.828 14.3705 52.62C14.6185 52.404 14.7425 52.1 14.7425 51.708ZM25.6773 56.364C25.2453 56.612 24.7213 56.808 24.1053 56.952C23.4893 57.096 22.8493 57.168 22.1853 57.168C21.2893 57.168 20.5253 57.06 19.8933 56.844C19.2693 56.628 18.7973 56.328 18.4773 55.944C18.1653 55.56 18.0093 55.116 18.0093 54.612C18.0093 54.172 18.1293 53.784 18.3693 53.448C18.6093 53.112 18.9413 52.852 19.3653 52.668C19.0373 52.5 18.7853 52.268 18.6093 51.972C18.4413 51.668 18.3573 51.336 18.3573 50.976C18.3573 50.512 18.5013 50.088 18.7893 49.704C19.0853 49.32 19.5333 49.012 20.1333 48.78C20.7333 48.548 21.4733 48.432 22.3533 48.432C22.9053 48.432 23.4493 48.484 23.9853 48.588C24.5213 48.692 24.9933 48.832 25.4013 49.008L24.7533 50.784C24.0093 50.456 23.2413 50.292 22.4493 50.292C21.8813 50.292 21.4573 50.368 21.1773 50.52C20.8973 50.664 20.7573 50.868 20.7573 51.132C20.7573 51.612 21.1053 51.852 21.8013 51.852H24.1773V53.664H21.6453C21.2373 53.664 20.9293 53.732 20.7213 53.868C20.5133 53.996 20.4093 54.188 20.4093 54.444C20.4093 54.716 20.5613 54.928 20.8653 55.08C21.1693 55.232 21.6413 55.308 22.2813 55.308C22.7373 55.308 23.2053 55.248 23.6853 55.128C24.1733 55 24.5973 54.828 24.9573 54.612L25.6773 56.364ZM32.9835 51.24C32.2795 50.848 31.5635 50.588 30.8355 50.46V57H28.4595V50.46C27.7155 50.588 26.9995 50.848 26.3115 51.24L25.5195 49.512C26.1035 49.16 26.7475 48.892 27.4515 48.708C28.1635 48.524 28.8955 48.432 29.6475 48.432C30.3995 48.432 31.1275 48.524 31.8315 48.708C32.5435 48.892 33.1915 49.16 33.7755 49.512L32.9835 51.24ZM40.9054 51.24C40.2014 50.848 39.4854 50.588 38.7574 50.46V57H36.3814V50.46C35.6374 50.588 34.9214 50.848 34.2334 51.24L33.4414 49.512C34.0254 49.16 34.6694 48.892 35.3734 48.708C36.0854 48.524 36.8174 48.432 37.5694 48.432C38.3214 48.432 39.0494 48.524 39.7534 48.708C40.4654 48.892 41.1134 49.16 41.6974 49.512L40.9054 51.24ZM50.1713 48.6V54.3C50.1713 55.148 50.0033 55.876 49.6673 56.484C49.3313 57.084 48.8513 57.536 48.2273 57.84C47.6113 58.152 46.8793 58.308 46.0313 58.308C45.2873 58.308 44.6113 58.212 44.0033 58.02C43.4033 57.836 42.8873 57.572 42.4553 57.228L43.3433 55.512C43.7273 55.792 44.1393 56.004 44.5793 56.148C45.0193 56.292 45.4713 56.364 45.9353 56.364C46.5753 56.364 47.0433 56.208 47.3393 55.896C47.6433 55.584 47.7953 55.096 47.7953 54.432V54.048C47.2593 54.696 46.5033 55.02 45.5273 55.02C44.4713 55.02 43.6593 54.72 43.0913 54.12C42.5233 53.512 42.2393 52.644 42.2393 51.516V48.6H44.6152V51.36C44.6152 51.928 44.7433 52.356 44.9993 52.644C45.2633 52.924 45.6433 53.064 46.1393 53.064C46.6433 53.064 47.0433 52.916 47.3393 52.62C47.6433 52.324 47.7953 51.864 47.7953 51.24V48.6H50.1713ZM58.9456 54.768H57.6496V57H55.2736V48.6H59.1136C59.8736 48.6 60.5336 48.728 61.0936 48.984C61.6536 49.232 62.0856 49.592 62.3896 50.064C62.6936 50.528 62.8456 51.076 62.8456 51.708C62.8456 52.316 62.7016 52.848 62.4136 53.304C62.1336 53.752 61.7296 54.104 61.2016 54.36L63.0136 57H60.4696L58.9456 54.768ZM60.4456 51.708C60.4456 51.316 60.3216 51.012 60.0736 50.796C59.8256 50.58 59.4576 50.472 58.9696 50.472H57.6496V52.932H58.9696C59.4576 52.932 59.8256 52.828 60.0736 52.62C60.3216 52.404 60.4456 52.1 60.4456 51.708ZM68.3924 57.168C67.5044 57.168 66.7044 56.98 65.9924 56.604C65.2884 56.228 64.7324 55.708 64.3244 55.044C63.9244 54.38 63.7244 53.632 63.7244 52.8C63.7244 51.968 63.9244 51.22 64.3244 50.556C64.7324 49.892 65.2884 49.372 65.9924 48.996C66.7044 48.62 67.5044 48.432 68.3924 48.432C69.2804 48.432 70.0764 48.62 70.7804 48.996C71.4924 49.372 72.0484 49.892 72.4484 50.556C72.8564 51.22 73.0604 51.968 73.0604 52.8C73.0604 53.632 72.8564 54.38 72.4484 55.044C72.0484 55.708 71.4924 56.228 70.7804 56.604C70.0764 56.98 69.2804 57.168 68.3924 57.168ZM68.3924 55.2C68.8164 55.2 69.2004 55.1 69.5444 54.9C69.8884 54.7 70.1604 54.42 70.3604 54.06C70.5604 53.692 70.6604 53.272 70.6604 52.8C70.6604 52.328 70.5604 51.912 70.3604 51.552C70.1604 51.184 69.8884 50.9 69.5444 50.7C69.2004 50.5 68.8164 50.4 68.3924 50.4C67.9684 50.4 67.5844 50.5 67.2404 50.7C66.8964 50.9 66.6244 51.184 66.4244 51.552C66.2244 51.912 66.1244 52.328 66.1244 52.8C66.1244 53.272 66.2244 53.692 66.4244 54.06C66.6244 54.42 66.8964 54.7 67.2404 54.9C67.5844 55.1 67.9684 55.2 68.3924 55.2ZM78.5408 57.168C77.6528 57.168 76.8528 56.98 76.1408 56.604C75.4368 56.228 74.8808 55.708 74.4728 55.044C74.0728 54.38 73.8728 53.632 73.8728 52.8C73.8728 51.968 74.0728 51.22 74.4728 50.556C74.8808 49.892 75.4368 49.372 76.1408 48.996C76.8528 48.62 77.6528 48.432 78.5408 48.432C79.4288 48.432 80.2248 48.62 80.9288 48.996C81.6408 49.372 82.1968 49.892 82.5968 50.556C83.0048 51.22 83.2088 51.968 83.2088 52.8C83.2088 53.632 83.0048 54.38 82.5968 55.044C82.1968 55.708 81.6408 56.228 80.9288 56.604C80.2248 56.98 79.4288 57.168 78.5408 57.168ZM78.5408 55.2C78.9648 55.2 79.3488 55.1 79.6928 54.9C80.0368 54.7 80.3088 54.42 80.5088 54.06C80.7088 53.692 80.8088 53.272 80.8088 52.8C80.8088 52.328 80.7088 51.912 80.5088 51.552C80.3088 51.184 80.0368 50.9 79.6928 50.7C79.3488 50.5 78.9648 50.4 78.5408 50.4C78.1168 50.4 77.7328 50.5 77.3888 50.7C77.0448 50.9 76.7728 51.184 76.5728 51.552C76.3728 51.912 76.2728 52.328 76.2728 52.8C76.2728 53.272 76.3728 53.692 76.5728 54.06C76.7728 54.42 77.0448 54.7 77.3888 54.9C77.7328 55.1 78.1168 55.2 78.5408 55.2ZM94.2813 48.432C95.2733 48.432 96.0453 48.728 96.5973 49.32C97.1573 49.904 97.4373 50.752 97.4373 51.864V57H95.0613V51.936C95.0613 51.432 94.9293 51.052 94.6653 50.796C94.4013 50.532 94.0493 50.4 93.6093 50.4C93.1373 50.4 92.7613 50.54 92.4813 50.82C92.2093 51.092 92.0733 51.504 92.0733 52.056V57H89.6973V51.936C89.6973 51.432 89.5733 51.052 89.3253 50.796C89.0853 50.532 88.7533 50.4 88.3293 50.4C87.8733 50.4 87.5093 50.54 87.2373 50.82C86.9653 51.092 86.8293 51.504 86.8293 52.056V57H84.4533V48.6H86.7573V49.536C87.0133 49.176 87.3413 48.904 87.7413 48.72C88.1493 48.528 88.6213 48.432 89.1573 48.432C89.7093 48.432 90.1893 48.532 90.5973 48.732C91.0133 48.932 91.3493 49.224 91.6053 49.608C91.8933 49.224 92.2693 48.932 92.7333 48.732C93.1973 48.532 93.7133 48.432 94.2813 48.432Z" fill="white"/>
<path d="M20.7 62.58V70H20.21V68.77C20.0033 69.1767 19.7133 69.49 19.34 69.71C18.9667 69.93 18.5433 70.04 18.07 70.04C17.5833 70.04 17.1433 69.9267 16.75 69.7C16.3567 69.4733 16.0467 69.16 15.82 68.76C15.6 68.36 15.49 67.9033 15.49 67.39C15.49 66.8767 15.6 66.42 15.82 66.02C16.0467 65.6133 16.3567 65.3 16.75 65.08C17.1433 64.8533 17.5833 64.74 18.07 64.74C18.5367 64.74 18.9533 64.85 19.32 65.07C19.6933 65.29 19.9867 65.5967 20.2 65.99V62.58H20.7ZM18.1 69.59C18.5 69.59 18.8567 69.4967 19.17 69.31C19.49 69.1233 19.74 68.8633 19.92 68.53C20.1067 68.1967 20.2 67.8167 20.2 67.39C20.2 66.9633 20.1067 66.5833 19.92 66.25C19.74 65.9167 19.49 65.6567 19.17 65.47C18.8567 65.2833 18.5 65.19 18.1 65.19C17.7 65.19 17.34 65.2833 17.02 65.47C16.7067 65.6567 16.4567 65.9167 16.27 66.25C16.09 66.5833 16 66.9633 16 67.39C16 67.8167 16.09 68.1967 16.27 68.53C16.4567 68.8633 16.7067 69.1233 17.02 69.31C17.34 69.4967 17.7 69.59 18.1 69.59ZM24.948 69.59C25.288 69.59 25.6014 69.53 25.888 69.41C26.1814 69.2833 26.4247 69.1 26.618 68.86L26.908 69.19C26.6814 69.47 26.398 69.6833 26.058 69.83C25.718 69.97 25.3447 70.04 24.938 70.04C24.418 70.04 23.9514 69.9267 23.538 69.7C23.1314 69.4733 22.8114 69.16 22.578 68.76C22.3514 68.36 22.238 67.9033 22.238 67.39C22.238 66.8767 22.3447 66.42 22.558 66.02C22.778 65.62 23.0814 65.3067 23.468 65.08C23.8547 64.8533 24.2914 64.74 24.778 64.74C25.2314 64.74 25.638 64.8467 25.998 65.06C26.3647 65.2667 26.6547 65.5567 26.868 65.93C27.088 66.2967 27.208 66.71 27.228 67.17L22.818 68.03C22.9447 68.51 23.198 68.89 23.578 69.17C23.958 69.45 24.4147 69.59 24.948 69.59ZM24.778 65.18C24.3847 65.18 24.0314 65.2733 23.718 65.46C23.4047 65.64 23.1614 65.8967 22.988 66.23C22.8147 66.5567 22.728 66.93 22.728 67.35C22.728 67.4233 22.7347 67.5267 22.748 67.66L26.728 66.88C26.6814 66.5667 26.5714 66.28 26.398 66.02C26.2247 65.76 25.998 65.5567 25.718 65.41C25.438 65.2567 25.1247 65.18 24.778 65.18ZM30.0948 70.04C29.6748 70.04 29.2748 69.9767 28.8948 69.85C28.5148 69.7233 28.2182 69.5633 28.0048 69.37L28.2348 68.97C28.4482 69.15 28.7215 69.3 29.0548 69.42C29.3948 69.54 29.7482 69.6 30.1148 69.6C30.6415 69.6 31.0282 69.5133 31.2748 69.34C31.5282 69.1667 31.6548 68.9267 31.6548 68.62C31.6548 68.4 31.5848 68.2267 31.4448 68.1C31.3115 67.9733 31.1448 67.88 30.9448 67.82C30.7448 67.76 30.4682 67.6967 30.1148 67.63C29.7015 67.5567 29.3682 67.4767 29.1148 67.39C28.8615 67.3033 28.6448 67.1633 28.4648 66.97C28.2848 66.7767 28.1948 66.51 28.1948 66.17C28.1948 65.7567 28.3648 65.4167 28.7048 65.15C29.0515 64.8767 29.5415 64.74 30.1748 64.74C30.5082 64.74 30.8382 64.7867 31.1648 64.88C31.4915 64.9733 31.7582 65.0967 31.9648 65.25L31.7348 65.65C31.5215 65.4967 31.2782 65.38 31.0048 65.3C30.7315 65.22 30.4515 65.18 30.1648 65.18C29.6782 65.18 29.3115 65.27 29.0648 65.45C28.8182 65.63 28.6948 65.8667 28.6948 66.16C28.6948 66.3933 28.7648 66.5767 28.9048 66.71C29.0448 66.8367 29.2148 66.9333 29.4148 67C29.6215 67.06 29.9082 67.1267 30.2748 67.2C30.6815 67.2733 31.0082 67.3533 31.2548 67.44C31.5082 67.52 31.7215 67.6533 31.8948 67.84C32.0682 68.0267 32.1548 68.2833 32.1548 68.61C32.1548 69.0433 31.9748 69.39 31.6148 69.65C31.2548 69.91 30.7482 70.04 30.0948 70.04ZM33.5502 64.78H34.0502V70H33.5502V64.78ZM33.8002 63.51C33.6869 63.51 33.5902 63.4733 33.5102 63.4C33.4302 63.32 33.3902 63.2233 33.3902 63.11C33.3902 62.9967 33.4302 62.9 33.5102 62.82C33.5902 62.74 33.6869 62.7 33.8002 62.7C33.9136 62.7 34.0102 62.74 34.0902 62.82C34.1702 62.8933 34.2102 62.9867 34.2102 63.1C34.2102 63.2133 34.1702 63.31 34.0902 63.39C34.0102 63.47 33.9136 63.51 33.8002 63.51ZM40.8577 64.78V69.44C40.8577 70.3067 40.6477 70.9467 40.2277 71.36C39.8077 71.7733 39.1743 71.98 38.3277 71.98C37.8477 71.98 37.3943 71.9067 36.9677 71.76C36.541 71.6133 36.1977 71.41 35.9377 71.15L36.2077 70.77C36.4677 71.01 36.781 71.1967 37.1477 71.33C37.5143 71.4633 37.9043 71.53 38.3177 71.53C39.011 71.53 39.5243 71.3633 39.8577 71.03C40.191 70.7033 40.3577 70.1933 40.3577 69.5V68.62C40.1443 69 39.8477 69.2933 39.4677 69.5C39.0877 69.7067 38.661 69.81 38.1877 69.81C37.701 69.81 37.2577 69.7033 36.8577 69.49C36.4643 69.27 36.1543 68.9667 35.9277 68.58C35.701 68.1933 35.5877 67.7567 35.5877 67.27C35.5877 66.7833 35.701 66.3467 35.9277 65.96C36.1543 65.5733 36.4643 65.2733 36.8577 65.06C37.2577 64.8467 37.701 64.74 38.1877 64.74C38.6677 64.74 39.101 64.8467 39.4877 65.06C39.8743 65.2733 40.171 65.5733 40.3777 65.96V64.78H40.8577ZM38.2277 69.36C38.6343 69.36 39.001 69.2733 39.3277 69.1C39.6543 68.92 39.9077 68.6733 40.0877 68.36C40.2743 68.04 40.3677 67.6767 40.3677 67.27C40.3677 66.8633 40.2743 66.5033 40.0877 66.19C39.9077 65.8767 39.6543 65.6333 39.3277 65.46C39.001 65.28 38.6343 65.19 38.2277 65.19C37.821 65.19 37.4543 65.28 37.1277 65.46C36.8077 65.6333 36.5543 65.8767 36.3677 66.19C36.1877 66.5033 36.0977 66.8633 36.0977 67.27C36.0977 67.6767 36.1877 68.04 36.3677 68.36C36.5543 68.6733 36.8077 68.92 37.1277 69.1C37.4543 69.2733 37.821 69.36 38.2277 69.36ZM45.5241 64.74C46.1774 64.74 46.6941 64.93 47.0741 65.31C47.4541 65.69 47.6441 66.2367 47.6441 66.95V70H47.1441V66.99C47.1441 66.4033 46.9941 65.9567 46.6941 65.65C46.4007 65.3433 45.9874 65.19 45.4541 65.19C44.8407 65.19 44.3574 65.3733 44.0041 65.74C43.6507 66.1067 43.4741 66.6 43.4741 67.22V70H42.9741V64.78H43.4541V65.91C43.6341 65.5433 43.9007 65.2567 44.2541 65.05C44.6141 64.8433 45.0374 64.74 45.5241 64.74ZM53.5909 70.04C53.1709 70.04 52.7709 69.9767 52.3909 69.85C52.0109 69.7233 51.7143 69.5633 51.5009 69.37L51.7309 68.97C51.9443 69.15 52.2176 69.3 52.5509 69.42C52.8909 69.54 53.2443 69.6 53.6109 69.6C54.1376 69.6 54.5243 69.5133 54.7709 69.34C55.0243 69.1667 55.1509 68.9267 55.1509 68.62C55.1509 68.4 55.0809 68.2267 54.9409 68.1C54.8076 67.9733 54.6409 67.88 54.4409 67.82C54.2409 67.76 53.9643 67.6967 53.6109 67.63C53.1976 67.5567 52.8643 67.4767 52.6109 67.39C52.3576 67.3033 52.1409 67.1633 51.9609 66.97C51.7809 66.7767 51.6909 66.51 51.6909 66.17C51.6909 65.7567 51.8609 65.4167 52.2009 65.15C52.5476 64.8767 53.0376 64.74 53.6709 64.74C54.0043 64.74 54.3343 64.7867 54.6609 64.88C54.9876 64.9733 55.2543 65.0967 55.4609 65.25L55.2309 65.65C55.0176 65.4967 54.7743 65.38 54.5009 65.3C54.2276 65.22 53.9476 65.18 53.6609 65.18C53.1743 65.18 52.8076 65.27 52.5609 65.45C52.3143 65.63 52.1909 65.8667 52.1909 66.16C52.1909 66.3933 52.2609 66.5767 52.4009 66.71C52.5409 66.8367 52.7109 66.9333 52.9109 67C53.1176 67.06 53.4043 67.1267 53.7709 67.2C54.1776 67.2733 54.5043 67.3533 54.7509 67.44C55.0043 67.52 55.2176 67.6533 55.3909 67.84C55.5643 68.0267 55.6509 68.2833 55.6509 68.61C55.6509 69.0433 55.4709 69.39 55.1109 69.65C54.7509 69.91 54.2443 70.04 53.5909 70.04ZM59.4763 69.67C59.3497 69.79 59.1897 69.8833 58.9963 69.95C58.8097 70.01 58.613 70.04 58.4063 70.04C57.953 70.04 57.603 69.9167 57.3563 69.67C57.1097 69.4167 56.9863 69.0667 56.9863 68.62V63.64H57.4863V64.78H59.1463V65.21H57.4863V68.57C57.4863 68.91 57.5663 69.17 57.7263 69.35C57.893 69.5233 58.1363 69.61 58.4563 69.61C58.783 69.61 59.053 69.5133 59.2663 69.32L59.4763 69.67ZM65.4347 64.78V70H64.9547V68.88C64.7814 69.2467 64.5247 69.5333 64.1847 69.74C63.8447 69.94 63.4447 70.04 62.9847 70.04C62.3047 70.04 61.7714 69.85 61.3847 69.47C60.998 69.09 60.8047 68.5433 60.8047 67.83V64.78H61.3047V67.79C61.3047 68.3767 61.4547 68.8233 61.7547 69.13C62.0547 69.4367 62.478 69.59 63.0247 69.59C63.6114 69.59 64.0747 69.4067 64.4147 69.04C64.7614 68.6733 64.9347 68.18 64.9347 67.56V64.78H65.4347ZM72.1941 62.58V70H71.7041V68.77C71.4975 69.1767 71.2075 69.49 70.8341 69.71C70.4608 69.93 70.0375 70.04 69.5641 70.04C69.0775 70.04 68.6375 69.9267 68.2441 69.7C67.8508 69.4733 67.5408 69.16 67.3141 68.76C67.0941 68.36 66.9841 67.9033 66.9841 67.39C66.9841 66.8767 67.0941 66.42 67.3141 66.02C67.5408 65.6133 67.8508 65.3 68.2441 65.08C68.6375 64.8533 69.0775 64.74 69.5641 64.74C70.0308 64.74 70.4475 64.85 70.8141 65.07C71.1875 65.29 71.4808 65.5967 71.6941 65.99V62.58H72.1941ZM69.5941 69.59C69.9941 69.59 70.3508 69.4967 70.6641 69.31C70.9841 69.1233 71.2341 68.8633 71.4141 68.53C71.6008 68.1967 71.6941 67.8167 71.6941 67.39C71.6941 66.9633 71.6008 66.5833 71.4141 66.25C71.2341 65.9167 70.9841 65.6567 70.6641 65.47C70.3508 65.2833 69.9941 65.19 69.5941 65.19C69.1941 65.19 68.8341 65.2833 68.5141 65.47C68.2008 65.6567 67.9508 65.9167 67.7641 66.25C67.5841 66.5833 67.4941 66.9633 67.4941 67.39C67.4941 67.8167 67.5841 68.1967 67.7641 68.53C67.9508 68.8633 68.2008 69.1233 68.5141 69.31C68.8341 69.4967 69.1941 69.59 69.5941 69.59ZM74.3022 64.78H74.8022V70H74.3022V64.78ZM74.5522 63.51C74.4389 63.51 74.3422 63.4733 74.2622 63.4C74.1822 63.32 74.1422 63.2233 74.1422 63.11C74.1422 62.9967 74.1822 62.9 74.2622 62.82C74.3422 62.74 74.4389 62.7 74.5522 62.7C74.6655 62.7 74.7622 62.74 74.8422 62.82C74.9222 62.8933 74.9622 62.9867 74.9622 63.1C74.9622 63.2133 74.9222 63.31 74.8422 63.39C74.7622 63.47 74.6655 63.51 74.5522 63.51ZM78.9496 70.04C78.4563 70.04 78.0096 69.9267 77.6096 69.7C77.2163 69.4733 76.9063 69.16 76.6796 68.76C76.4529 68.3533 76.3396 67.8967 76.3396 67.39C76.3396 66.8833 76.4529 66.43 76.6796 66.03C76.9063 65.6233 77.2163 65.3067 77.6096 65.08C78.0096 64.8533 78.4563 64.74 78.9496 64.74C79.4429 64.74 79.8863 64.8533 80.2796 65.08C80.6796 65.3067 80.9929 65.6233 81.2196 66.03C81.4463 66.43 81.5596 66.8833 81.5596 67.39C81.5596 67.8967 81.4463 68.3533 81.2196 68.76C80.9929 69.16 80.6796 69.4733 80.2796 69.7C79.8863 69.9267 79.4429 70.04 78.9496 70.04ZM78.9496 69.59C79.3496 69.59 79.7063 69.4967 80.0196 69.31C80.3396 69.1233 80.5896 68.8633 80.7696 68.53C80.9563 68.1967 81.0496 67.8167 81.0496 67.39C81.0496 66.9633 80.9563 66.5833 80.7696 66.25C80.5896 65.9167 80.3396 65.6567 80.0196 65.47C79.7063 65.2833 79.3496 65.19 78.9496 65.19C78.5496 65.19 78.1896 65.2833 77.8696 65.47C77.5563 65.6567 77.3063 65.9167 77.1196 66.25C76.9396 66.5833 76.8496 66.9633 76.8496 67.39C76.8496 67.8167 76.9396 68.1967 77.1196 68.53C77.3063 68.8633 77.5563 69.1233 77.8696 69.31C78.1896 69.4967 78.5496 69.59 78.9496 69.59Z" fill="white"/>
</svg>
