<svg width="12" height="16" viewBox="0 0 12 16" fill="none" xmlns="http://www.w3.org/2000/svg">
<path fill-rule="evenodd" clip-rule="evenodd" d="M12 6.49988C12 3.18617 9.31371 0.499878 6 0.499878C2.68629 0.499878 0 3.18617 0 6.49988C0 9.30849 1.37288 10.4126 2.64721 11.4374C3.48949 12.1147 4.28872 12.7575 4.62 13.8349L5.0025 14.9899C5.10975 15.3089 5.41639 15.5174 5.7525 15.4999H6.1725C6.50861 15.5174 6.81525 15.3089 6.9225 14.9899L7.305 13.8349C7.66338 12.7657 8.4709 12.1245 9.31693 11.4528C10.6133 10.4236 12 9.32264 12 6.49988ZM6 1.99988C3.51472 1.99988 1.5 4.0146 1.5 6.49988C1.5 8.59988 2.385 9.30488 3.615 10.2499C4.64911 10.9487 5.47356 11.9157 6 13.0474C6.52898 11.9174 7.3529 10.9509 8.385 10.2499C9.615 9.30488 10.5 8.59988 10.5 6.49988C10.5 4.0146 8.48528 1.99988 6 1.99988ZM7.5 6.49988C7.5 7.32831 6.82843 7.99988 6 7.99988C5.17157 7.99988 4.5 7.32831 4.5 6.49988C4.5 5.67145 5.17157 4.99988 6 4.99988C6.82843 4.99988 7.5 5.67145 7.5 6.49988Z" fill="white"/>
</svg>
