<svg width="12" height="18" viewBox="0 0 12 18" fill="none" xmlns="http://www.w3.org/2000/svg">
<path fill-rule="evenodd" clip-rule="evenodd" d="M3 0.749878H9C10.2426 0.749878 11.25 1.75724 11.25 2.99988V14.9999C11.25 16.2425 10.2426 17.2499 9 17.2499H3C1.75736 17.2499 0.75 16.2425 0.75 14.9999V2.99988C0.75 1.75724 1.75736 0.749878 3 0.749878ZM9.75 3.74988C9.75 3.33566 9.41421 2.99988 9 2.99988H3C2.58579 2.99988 2.25 3.33566 2.25 3.74988V14.2499C2.25 14.6641 2.58579 14.9999 3 14.9999H9C9.41421 14.9999 9.75 14.6641 9.75 14.2499V3.74988Z" fill="white"/>
</svg>
